<svg width="48" height="48" viewBox="0 0 48 48" xmlns="http://www.w3.org/2000/svg">
  <defs>
    <linearGradient id="logoGradient" x1="0%" y1="0%" x2="100%" y2="100%">
      <stop offset="0%" style="stop-color:#26c6da"/>
      <stop offset="100%" style="stop-color:#0d47a1"/>
    </linearGradient>
  </defs>
  
  <!-- Background circle -->
  <circle cx="24" cy="24" r="22" fill="url(#logoGradient)" stroke="none"/>
  
  <!-- SMS/Message icon -->
  <g fill="white" stroke="none">
    <!-- Chat bubble -->
    <path d="M12 16c0-2.2 1.8-4 4-4h16c2.2 0 4 1.8 4 4v8c0 2.2-1.8 4-4 4h-12l-6 4v-6c-1.1 0-2-.9-2-2v-8z"/>
    
    <!-- Message lines -->
    <rect x="18" y="19" width="12" height="1.5" rx="0.75" fill="#26c6da"/>
    <rect x="18" y="22" width="8" height="1.5" rx="0.75" fill="#26c6da"/>
    
    <!-- SMS indicator dots -->
    <circle cx="15" cy="35" r="2" fill="white"/>
    <circle cx="21" cy="35" r="2" fill="white"/>
    <circle cx="27" cy="35" r="2" fill="white"/>
  </g>
</svg>